<svg width="397" height="39" viewBox="0 0 397 39" fill="none" xmlns="http://www.w3.org/2000/svg">
<path d="M1.87414 32H15.9981V31.252L11.4221 30.68C10.1021 30.504 9.13414 29.492 9.13414 28.128V7.05204L27.3061 32H29.0661V4.98404C29.0661 3.66404 29.9901 2.56404 31.3101 2.38804L34.6541 1.94804V1.20004H20.5741V1.94804L25.1501 2.52004C26.4701 2.69604 27.4381 3.70804 27.4381 5.07204V25.4L13.1821 5.55604C10.2341 1.42004 7.15414 1.20004 0.994141 1.20004V1.94804C3.67814 2.34404 6.31814 3.35604 7.46214 5.38004V28.216C7.46214 29.536 6.53814 30.636 5.21814 30.812L1.87414 31.252V32Z" fill="black"/>
<path d="M59.4691 32.704C68.7971 32.704 75.7051 26.192 75.7051 16.6C75.7051 7.00804 68.7971 0.540039 59.4691 0.540039C50.1411 0.540039 43.1891 7.00804 43.1891 16.6C43.1891 26.192 50.1411 32.704 59.4691 32.704ZM59.5131 31.164C51.4171 31.164 47.8531 24.168 47.8531 15.588C47.8531 7.58004 51.5931 2.08004 59.4251 2.08004C67.3451 2.08004 70.9971 8.94404 70.9971 17.26C70.9971 25.532 67.6531 31.164 59.5131 31.164Z" fill="black"/>
<path d="M98.7539 17.128H99.5459C104.078 29.668 111.822 35.3 116.266 38.072C110.018 29.536 106.806 23.904 103.946 16.732C109.314 15.808 112.262 13.3 112.262 8.94404C112.262 3.40004 107.246 1.20004 98.3139 1.20004H85.1139V1.94804L87.9299 2.30004C89.2499 2.47604 90.2179 3.48804 90.2179 4.85204V28.348C90.2179 29.712 89.2499 30.724 87.9299 30.9L85.1139 31.252V32H99.6779V31.252L96.8619 30.9C95.5419 30.724 94.5739 29.712 94.5739 28.348V17.128H98.7539ZM94.5739 2.74004H99.4139C105.398 2.74004 108.082 4.80804 108.082 9.16404C108.082 13.52 105.09 15.588 98.7099 15.588H94.5739V2.74004Z" fill="black"/>
<path d="M124.293 32H138.417C149.329 32 156.325 26.456 156.325 16.688C156.325 6.43604 149.329 1.20004 138.417 1.20004H124.293V1.94804L127.109 2.30004C128.429 2.47604 129.397 3.48804 129.397 4.85204V28.348C129.397 29.712 128.429 30.724 127.109 30.9L124.293 31.252V32ZM136.041 30.46C134.721 30.46 133.753 29.712 133.753 28.348V2.74004H138.065C144.753 2.74004 151.661 5.51204 151.661 16.688C151.661 27.028 145.545 30.46 138.065 30.46H136.041Z" fill="black"/>
<path d="M166.007 32H180.571V31.252L177.755 30.9C176.435 30.724 175.467 29.712 175.467 28.348V4.85204C175.467 3.48804 176.435 2.47604 177.755 2.30004L180.571 1.94804V1.20004H166.007V1.94804L168.823 2.30004C170.143 2.47604 171.111 3.48804 171.111 4.85204V28.348C171.111 29.712 170.143 30.724 168.823 30.9L166.007 31.252V32Z" fill="black"/>
<path d="M206.702 32.66C211.806 32.66 217.262 30.724 220.826 27.38V25.048C217.394 28.26 212.686 29.888 208.022 29.888C201.114 29.888 195.438 24.872 195.438 16.6C195.438 7.93204 199.398 2.08004 206.702 2.08004C214.006 2.08004 216.822 7.49204 215.854 16.996H216.91L219.55 5.24804C217.042 2.38804 210.222 0.540039 206.702 0.540039C197.066 0.540039 190.554 7.00804 190.554 16.6C190.554 26.236 197.11 32.66 206.702 32.66Z" fill="black"/>
<path d="M263.496 17.128H264.288C268.82 29.668 276.564 35.3 281.008 38.072C274.76 29.536 271.548 23.904 268.688 16.732C274.056 15.808 277.004 13.3 277.004 8.94404C277.004 3.40004 271.988 1.20004 263.056 1.20004H249.856V1.94804L252.672 2.30004C253.992 2.47604 254.96 3.48804 254.96 4.85204V28.348C254.96 29.712 253.992 30.724 252.672 30.9L249.856 31.252V32H264.42V31.252L261.604 30.9C260.284 30.724 259.316 29.712 259.316 28.348V17.128H263.496ZM259.316 2.74004H264.156C270.14 2.74004 272.824 4.80804 272.824 9.16404C272.824 13.52 269.832 15.588 263.452 15.588H259.316V2.74004Z" fill="black"/>
<path d="M305.018 32.704C314.346 32.704 321.254 26.192 321.254 16.6C321.254 7.00804 314.346 0.540039 305.018 0.540039C295.69 0.540039 288.738 7.00804 288.738 16.6C288.738 26.192 295.69 32.704 305.018 32.704ZM305.062 31.164C296.966 31.164 293.402 24.168 293.402 15.588C293.402 7.58004 297.142 2.08004 304.974 2.08004C312.894 2.08004 316.546 8.94404 316.546 17.26C316.546 25.532 313.202 31.164 305.062 31.164Z" fill="black"/>
<path d="M345.295 32.66C351.895 32.66 356.559 29.316 356.559 24.476C356.559 12.64 338.343 14.048 338.343 7.49204C338.343 4.36804 341.511 2.08004 346.219 2.08004C351.631 2.08004 353.655 4.98404 354.183 12.64H355.195L355.635 2.65204C353.039 1.50804 349.739 0.540039 346.219 0.540039C339.355 0.540039 335.087 3.62004 335.087 7.93204C335.087 19.416 353.391 17.612 353.391 25.136C353.391 28.656 349.783 31.12 345.735 31.12C340.059 31.12 337.771 28.084 336.715 19.372H335.703L334.823 29.8C337.859 31.472 340.675 32.66 345.295 32.66Z" fill="black"/>
<path d="M367.565 32H395.505L396.825 21.616H396.077C393.393 28.568 391.545 30.46 387.629 30.46H379.313C377.993 30.46 377.025 29.712 377.025 28.348V17.128H387.365C388.553 17.128 389.741 17.964 389.829 19.108L390.313 24.256H391.061V8.90004H390.313L389.829 13.608C389.697 14.796 388.553 15.588 387.365 15.588H377.025V2.74004H386.749C390.005 2.74004 392.821 4.28004 394.581 11.628H395.329L394.449 1.20004H367.565V1.94804L370.381 2.30004C371.701 2.47604 372.669 3.48804 372.669 4.85204V28.348C372.669 29.712 371.701 30.724 370.381 30.9L367.565 31.252V32Z" fill="black"/>
</svg>
