<svg width="20" height="16" viewBox="0 0 20 16" fill="none" xmlns="http://www.w3.org/2000/svg">
<path d="M19.6169 0.00896646C18.763 0.611275 17.8176 1.07195 16.8171 1.37324C16.28 0.755757 15.5663 0.318104 14.7725 0.119469C13.9786 -0.0791667 13.1429 -0.0292013 12.3784 0.262607C11.6138 0.554416 10.9573 1.07399 10.4977 1.75105C10.0381 2.42812 9.7975 3.23001 9.80847 4.04827V4.93995C8.24146 4.98058 6.68873 4.63305 5.28855 3.92829C3.88838 3.22354 2.68424 2.18345 1.78336 0.900645C1.78336 0.900645 -1.78336 8.92575 6.24175 12.4925C4.40536 13.739 2.21775 14.364 0 14.2758C8.02511 18.7342 17.8336 14.2758 17.8336 4.02152C17.8328 3.77315 17.8089 3.52539 17.7622 3.28143C18.6723 2.38395 19.3145 1.25082 19.6169 0.00896646Z" fill="black"/>
</svg>
