<svg width="20" height="20" viewBox="0 0 20 20" fill="none" xmlns="http://www.w3.org/2000/svg">
<path d="M10.0001 0.041626C4.47724 0.041626 0 4.51886 0 10.0417C0 14.995 3.60522 19.0972 8.33225 19.8916V12.128H5.91994V9.33417H8.33225V7.27413C8.33225 4.88389 9.79213 3.58135 11.9247 3.58135C12.9461 3.58135 13.8238 3.65746 14.0786 3.69098V6.18942L12.5995 6.19013C11.44 6.19013 11.2165 6.74102 11.2165 7.54969V9.33274H13.9832L13.6223 12.1265H11.2165V19.9584C16.1642 19.3562 20 15.1495 20 10.0388C20 4.51886 15.5228 0.041626 10.0001 0.041626Z" fill="#010002"/>
</svg>
